<?xml version="1.0" encoding="UTF-8"?>
<!DOCTYPE svg PUBLIC "-//W3C//DTD SVG 1.1//EN" "http://www.w3.org/Graphics/SVG/1.1/DTD/svg11.dtd">
<!-- Creator: CorelDRAW X5 -->
<svg xmlns="http://www.w3.org/2000/svg" xml:space="preserve" width="82.2859mm" height="82.2859mm" style="shape-rendering:geometricPrecision; text-rendering:geometricPrecision; image-rendering:optimizeQuality; fill-rule:evenodd; clip-rule:evenodd"
viewBox="0 0 155.705 155.705"
 xmlns:xlink="http://www.w3.org/1999/xlink">
 <defs>
  <style type="text/css">
   <![CDATA[
    .fil1 {fill:#606062}
    .fil2 {fill:#DD353B}
    .fil0 {fill:#FEFEFE}
   ]]>
  </style>
 </defs>
 <g id="Capa_x0020_1">
  <metadata id="CorelCorpID_0Corel-Layer"/>
  <circle class="fil0" cx="77.8523" cy="77.8523" r="77.8523"/>
  <g id="_269289752">
   <path id="_269290136" class="fil1" d="M36.4438 142.59c-21.1681,-13.6319 -35.1877,-37.4056 -35.1877,-64.455 0,-34.737 23.1213,-64.0687 54.8119,-73.4584 17.8775,3.97011 33.8389,15.7637 42.4707,33.5123 4.26776,8.77526 6.28167,18.061 6.27258,27.2036 -1.64227,-0.125645 -3.30177,-0.19017 -4.97602,-0.19017 -35.7045,0 -64.6487,28.9443 -64.6487,64.6485 0,4.36104 0.433323,8.62047 1.2572,12.7391z"/>
   <path id="_269289968" class="fil2" d="M152.909 93.6225c-7.16212,34.8861 -38.0382,61.1225 -75.043,61.1225 -14.6792,0 -28.3921,-4.13151 -40.0451,-11.2908 7.20073,-34.8724 38.0741,-61.0911 75.0793,-61.0911 14.6628,0 28.3609,4.11997 40.0087,11.2594z"/>
   <path id="_269289800" class="fil2" d="M89.0372 2.33862c37.0147,5.40859 65.4385,37.2811 65.4385,75.7967 0,5.1168 -0.506363,10.115 -1.46308,14.951 -10.2669,-14.8221 -26.5674,-25.1454 -45.3513,-27.4127 5.57794,-13.3938 5.60254,-29.0249 -1.24225,-43.0988 -4.10218,-8.43522 -10.1698,-15.273 -17.3819,-20.2362z"/>
  </g>
 </g>
</svg>
